<svg width="45" height="45" viewBox="0 0 45 45" fill="none" xmlns="http://www.w3.org/2000/svg">
<rect width="45" height="45" fill="#E5E5E5"/>
<path d="M14 29.5C14 28.837 14.2634 28.2011 14.7322 27.7322C15.2011 27.2634 15.837 27 16.5 27H30" stroke="black" stroke-width="2" stroke-linecap="round" stroke-linejoin="round"/>
<path d="M16.5 12H30V32H16.5C15.837 32 15.2011 31.7366 14.7322 31.2678C14.2634 30.7989 14 30.163 14 29.5V14.5C14 13.837 14.2634 13.2011 14.7322 12.7322C15.2011 12.2634 15.837 12 16.5 12V12Z" stroke="black" stroke-width="2" stroke-linecap="round" stroke-linejoin="round"/>
<g clip-path="url(#clip0_203_3)">
<path fill-rule="evenodd" clip-rule="evenodd" d="M22.3 21C20.92 21 19.8 22.12 19.8 23.5C19.8 24.88 20.92 26 22.3 26C23.68 26 24.8 24.88 24.8 23.5C24.8 22.12 23.68 21 22.3 21ZM22.3 25.5C21.195 25.5 20.3 24.605 20.3 23.5C20.3 23.0375 20.4575 22.6125 20.7225 22.275L23.525 25.0775C23.1875 25.3425 22.7625 25.5 22.3 25.5ZM23.8775 24.725L21.075 21.9225C21.4125 21.6575 21.8375 21.5 22.3 21.5C23.405 21.5 24.3 22.395 24.3 23.5C24.3 23.9625 24.1425 24.3875 23.8775 24.725Z" fill="#1D1D1D"/>
</g>
<path d="M22.0898 16H21.8071L20.7334 14.3564V16H20.4507V13.8672H20.7334L21.8101 15.5181V13.8672H22.0898V16ZM22.4751 15.1929C22.4751 15.0376 22.5054 14.8979 22.5659 14.7739C22.6274 14.6499 22.7124 14.5542 22.8208 14.4868C22.9302 14.4194 23.0547 14.3857 23.1943 14.3857C23.4102 14.3857 23.5845 14.4604 23.7173 14.6099C23.8511 14.7593 23.918 14.958 23.918 15.2061V15.2251C23.918 15.3794 23.8882 15.5181 23.8286 15.6411C23.77 15.7632 23.6855 15.8584 23.5752 15.9268C23.4658 15.9951 23.3398 16.0293 23.1973 16.0293C22.9824 16.0293 22.8081 15.9546 22.6743 15.8052C22.5415 15.6558 22.4751 15.458 22.4751 15.2119V15.1929ZM22.7476 15.2251C22.7476 15.4009 22.7881 15.542 22.8691 15.6484C22.9512 15.7549 23.0605 15.8081 23.1973 15.8081C23.335 15.8081 23.4443 15.7544 23.5254 15.647C23.6064 15.5386 23.647 15.3872 23.647 15.1929C23.647 15.019 23.6055 14.8784 23.5225 14.771C23.4404 14.6626 23.3311 14.6084 23.1943 14.6084C23.0605 14.6084 22.9526 14.6616 22.8706 14.7681C22.7886 14.8745 22.7476 15.0269 22.7476 15.2251ZM19.6919 19.8081C19.7886 19.8081 19.873 19.7788 19.9453 19.7202C20.0176 19.6616 20.0576 19.5884 20.0654 19.5005H20.3218C20.3169 19.5913 20.2856 19.6777 20.228 19.7598C20.1704 19.8418 20.0933 19.9072 19.9966 19.9561C19.9009 20.0049 19.7993 20.0293 19.6919 20.0293C19.4761 20.0293 19.3042 19.9575 19.1763 19.814C19.0493 19.6694 18.9858 19.4722 18.9858 19.2222V19.1768C18.9858 19.0225 19.0142 18.8853 19.0708 18.7651C19.1274 18.645 19.2085 18.5518 19.314 18.4854C19.4204 18.4189 19.5459 18.3857 19.6904 18.3857C19.8682 18.3857 20.0156 18.439 20.1328 18.5454C20.251 18.6519 20.314 18.79 20.3218 18.96H20.0654C20.0576 18.8574 20.0186 18.7734 19.9482 18.708C19.8789 18.6416 19.793 18.6084 19.6904 18.6084C19.5527 18.6084 19.4458 18.6582 19.3696 18.7578C19.2944 18.8564 19.2568 18.9995 19.2568 19.187V19.2383C19.2568 19.4209 19.2944 19.5615 19.3696 19.6602C19.4448 19.7588 19.5522 19.8081 19.6919 19.8081ZM20.5547 19.1929C20.5547 19.0376 20.585 18.8979 20.6455 18.7739C20.707 18.6499 20.792 18.5542 20.9004 18.4868C21.0098 18.4194 21.1343 18.3857 21.2739 18.3857C21.4897 18.3857 21.6641 18.4604 21.7969 18.6099C21.9307 18.7593 21.9976 18.958 21.9976 19.2061V19.2251C21.9976 19.3794 21.9678 19.5181 21.9082 19.6411C21.8496 19.7632 21.7651 19.8584 21.6548 19.9268C21.5454 19.9951 21.4194 20.0293 21.2769 20.0293C21.062 20.0293 20.8877 19.9546 20.7539 19.8052C20.6211 19.6558 20.5547 19.458 20.5547 19.2119V19.1929ZM20.8271 19.2251C20.8271 19.4009 20.8677 19.542 20.9487 19.6484C21.0308 19.7549 21.1401 19.8081 21.2769 19.8081C21.4146 19.8081 21.5239 19.7544 21.605 19.647C21.686 19.5386 21.7266 19.3872 21.7266 19.1929C21.7266 19.019 21.6851 18.8784 21.6021 18.771C21.52 18.6626 21.4106 18.6084 21.2739 18.6084C21.1401 18.6084 21.0322 18.6616 20.9502 18.7681C20.8682 18.8745 20.8271 19.0269 20.8271 19.2251ZM22.8369 19.6323L23.2295 18.415H23.5063L22.938 20H22.7314L22.1572 18.415H22.4341L22.8369 19.6323ZM24.4043 20.0293C24.1895 20.0293 24.0146 19.959 23.8799 19.8184C23.7451 19.6768 23.6777 19.4878 23.6777 19.2515V19.2017C23.6777 19.0444 23.7075 18.9043 23.7671 18.7812C23.8276 18.6572 23.9116 18.5605 24.019 18.4912C24.1274 18.4209 24.2446 18.3857 24.3706 18.3857C24.5767 18.3857 24.7368 18.4536 24.8511 18.5894C24.9653 18.7251 25.0225 18.9194 25.0225 19.1724V19.2852H23.9487C23.9526 19.4414 23.998 19.5679 24.085 19.6646C24.1729 19.7603 24.2842 19.8081 24.4189 19.8081C24.5146 19.8081 24.5957 19.7886 24.6621 19.7495C24.7285 19.7104 24.7866 19.6587 24.8364 19.5942L25.002 19.7231C24.8691 19.9272 24.6699 20.0293 24.4043 20.0293ZM24.3706 18.6084C24.2612 18.6084 24.1694 18.6484 24.0952 18.7285C24.021 18.8076 23.9751 18.9189 23.9575 19.0625H24.7515V19.042C24.7437 18.9043 24.7065 18.7979 24.6401 18.7227C24.5737 18.6465 24.4839 18.6084 24.3706 18.6084ZM26.1035 18.6582C26.0625 18.6514 26.0181 18.6479 25.9702 18.6479C25.7925 18.6479 25.6719 18.7236 25.6084 18.875V20H25.3374V18.415H25.6011L25.6055 18.5981C25.6943 18.4565 25.8203 18.3857 25.9834 18.3857C26.0361 18.3857 26.0762 18.3926 26.1035 18.4062V18.6582Z" fill="black"/>
<defs>
<clipPath id="clip0_203_3">
<rect width="5" height="5" fill="white" transform="translate(19.8 21)"/>
</clipPath>
</defs>
</svg>
