<svg width="1920" height="234" viewBox="0 0 1920 234" fill="none" xmlns="http://www.w3.org/2000/svg">
<path d="M-354 81.2193L-278.2 108.126C-202.4 135.032 -50.8 188.844 100.8 211.294C252.4 233.407 339.442 68.0185 491.042 54.3132C642.642 41.1123 858.8 179.595 1010.4 144.028C1162 108.126 1313.6 54.3132 1465.2 36.4038C1616.8 18.158 1768.4 36.656 1844.2 45.3164L1920 54.3132V269.562H1844.2C1768.4 269.562 1616.8 269.562 1465.2 269.562C1313.6 269.562 1162 269.562 1010.4 269.562C858.8 269.562 707.2 269.562 555.6 269.562C404 269.562 252.4 269.562 100.8 269.562C-50.8 269.562 -202.4 269.562 -278.2 269.562H-354V81.2193Z" fill="url(#paint0_linear)"/>
<defs>
<linearGradient id="paint0_linear" x1="783" y1="28.6406" x2="783" y2="269.562" gradientUnits="userSpaceOnUse">
<stop stop-color="#BFEDEF" stop-opacity="0.63"/>
<stop offset="0.640625" stop-color="#569496" stop-opacity="0.64"/>
</linearGradient>
</defs>
</svg>
