<svg height="512" viewBox="0 0 56 45" width="512" xmlns="http://www.w3.org/2000/svg"><g id="Page-1" fill="none" fill-rule="evenodd"><g id="013---Book-Stack" fill="rgb(0,0,0)" fill-rule="nonzero" transform="translate(-1)"><path id="Shape" d="m30.428 22.774 26.541-13.93s.037-.021.031-.1-.041-.082-.058-.087l-23.027-7.857c-1.0700098-.3676187-2.2426939-.29126458-3.256.212l-24.909 12.304 22.743 9.53c.6196889.2853808 1.3382329.2586443 1.935-.072zm-6.428-15.147c-.020895-.3990021.1977231-.77214706.556-.949l7.157-3.534c.447307-.22065535.9634419-.25657288 1.437-.1l16.007 5.464c.3743504.12831834.6378167.46532344.6720054.85957582.0341887.39425239-.1673321.77158018-.5140054.96242418l-7.519 4.126c-.1469265.081292-.312084.1239577-.48.124-.1180782-.0002008-.235199-.0211878-.346-.062l-16.321-6.005c-.3736652-.13947971-.6287147-.48766747-.649-.886z"/><path id="Shape" d="m46.361 9.671-13.854-4.729-4.995 2.494 13.717 5.051z"/><path id="Shape" d="m29.391 41.426c-.586318.0009573-1.1660217-.1238495-1.7-.366l-11.227-4.413c-.2694072.2306957-.6123161.3576465-.967.358-.3489656-.0001287-.6864724-.1245666-.952-.351l-2.615-2.1h-2.43c-.71505605-.000527-1.33032588-.5057179-1.47-1.207l-3.536-1.396c-.5141771-.2021362-.76713622-.7828229-.565-1.297s.7828229-.7671362 1.297-.565l2.774 1.092v-3.741l-3.526-1.478-.014-.009h-.009c-.12-.054-.229-.117-.345-.174-.46204321-.1630145-.96595679-.1630145-1.428 0l-.04.014c-1.09998302.6360809-1.7370523 1.8472126-1.638 3.114.02506121 2.7340159 1.71514886 5.1762223 4.265 6.163l23.235 9.73c.6135439.2866625 1.3276746.2598547 1.918-.072l25.982-13.646c.3720903-.2104937.6015227-.6054998.6-1.033v-1.989l-25.652 12.864c-.5990115.3310775-1.2725852.5038593-1.957.502z"/><path id="Shape" d="m29.391 30.426c-.586318.0009573-1.1660217-.1238495-1.7-.366l-10.691-4.199v3.178l11.5 4.818c.613172.2841116 1.3251948.2580982 1.916-.07l25.984-13.652c.3717525-.2068919.6016054-.5995571.6-1.025l.0000084-2.059-25.6510084 12.872c-.599165.331715-1.2731423.5048562-1.958.503z"/><path id="Shape" d="m13.036 32.873 1.964 1.581v-9.378l-5-1.964v3.639 5.8h2.11c.3358499.0015823.6616272.1148655.926.322z"/><path id="Shape" d="m29.393 36.051c-.5822026.0004743-1.1579969-.1214987-1.69-.358l-10.703-4.493v3.505l11.476 4.51c.6171729.2963078 1.3400396.2731701 1.937-.062l26.587-13.33v-3.747l-25.635 13.469c-.6033604.3342423-1.2822495.50844-1.972.506z"/><path id="Shape" d="m31.375 24.536c-.6056344.3344385-1.2861603.5099028-1.978.51-.58607-.0003815-1.1654263-.1247727-1.7-.365l-23.215-9.728c-.57807571-.2993292-1.25858975-.3290833-1.86058467-.0813504-.60199492.247733-1.06445836.7478452-1.26441533 1.3673504-.891 2.072-.262 6.012 3.915 7.888l2.728 1.142v-2.942l-3.506-1.376c-.51417707-.2021362-.76713616-.7828229-.56499995-1.297s.78282286-.7671362 1.29699995-.565l11.14 4.375.039.015 12.071 4.74c.6171729.2963078 1.3400396.2731701 1.937-.062l26.587-13.344v-3.727z"/></g></g></svg>