<svg width="184" height="56" viewBox="0 0 184 56" fill="none" xmlns="http://www.w3.org/2000/svg">
<path fill-rule="evenodd" clip-rule="evenodd" d="M100 16H103.6L103.6 39.64H100V16ZM104.392 28.552L111.088 21.064H116.056L108.388 28.552L117.208 39.676L113.032 40.18L104.392 28.552Z" fill="black"/>
<path d="M17.9883 40V14.8633H28.7109C33.4922 14.8633 35.8828 16.8145 35.8828 20.7168C35.8828 23.5762 34.3242 25.6211 31.207 26.8516C34.5352 27.4727 36.1992 29.377 36.1992 32.5645C36.1992 37.5215 33.5801 40 28.3418 40H17.9883ZM28.1484 37.3633C31.1484 37.3633 32.6484 35.8398 32.6484 32.793C32.6484 29.8281 30.6387 28.3457 26.6191 28.3457H25.2129V26.2188C30.0176 25.5742 32.4199 23.8398 32.4199 21.0156C32.4199 18.6719 31.084 17.5 28.4121 17.5H21.2402V37.3633H28.1484ZM43.3887 30.7012C43.3887 35.1426 45.2344 37.3633 48.9258 37.3633C52.6172 37.3633 54.4629 35.1426 54.4629 30.7012C54.4629 26.3535 52.6172 24.1797 48.9258 24.1797C45.2344 24.1797 43.3887 26.3535 43.3887 30.7012ZM40.1367 30.7715C40.1367 24.6191 43.0664 21.543 48.9258 21.543C54.7852 21.543 57.7148 24.6191 57.7148 30.7715C57.7148 36.9121 54.7852 39.9824 48.9258 39.9824C43.0898 39.9824 40.1602 36.9121 40.1367 30.7715ZM64.4824 30.7012C64.4824 35.1426 66.3281 37.3633 70.0195 37.3633C73.7109 37.3633 75.5566 35.1426 75.5566 30.7012C75.5566 26.3535 73.7109 24.1797 70.0195 24.1797C66.3281 24.1797 64.4824 26.3535 64.4824 30.7012ZM61.2305 30.7715C61.2305 24.6191 64.1602 21.543 70.0195 21.543C75.8789 21.543 78.8086 24.6191 78.8086 30.7715C78.8086 36.9121 75.8789 39.9824 70.0195 39.9824C64.1836 39.9824 61.2539 36.9121 61.2305 30.7715ZM125.971 21.543C131.221 21.543 133.846 24.1387 133.846 29.3301C133.846 30.0684 133.793 30.8594 133.688 31.7031H120.732C120.732 35.4766 122.936 37.3633 127.342 37.3633C129.439 37.3633 131.303 37.1289 132.932 36.6602V39.2969C131.303 39.7656 129.322 40 126.99 40C120.65 40 117.48 36.8535 117.48 30.5605C117.48 24.5488 120.311 21.543 125.971 21.543ZM120.732 28.9961H130.717C130.646 25.7617 129.064 24.1445 125.971 24.1445C122.689 24.1445 120.943 25.7617 120.732 28.9961ZM138.223 40V21.543H140.42L141 23.8984C142.887 22.3281 144.961 21.543 147.223 21.543C151.828 21.543 154.131 23.834 154.131 28.416V40H150.879V28.3633C150.879 25.6211 149.514 24.25 146.783 24.25C144.92 24.25 143.15 25.0293 141.475 26.5879V40H138.223ZM159.422 18.5547H161.461L162.164 21.543H167.156V24.1797H162.674V34.7793C162.674 36.502 163.418 37.3633 164.906 37.3633H167.156V40H164.062C160.969 40 159.422 38.3418 159.422 35.0254V18.5547Z" fill="black"/>
<g filter="url(#filter0_d)">
<g clip-path="url(#clip0)">
<path d="M86.3845 16.0715L86.0362 15.8253L102.521 13.9926L102.499 13.8044L85.8023 15.6604L85.5119 15.4567L102.186 13.5879L102.163 13.3985L85.2755 15.2917L84.9549 15.0662L101.888 13.1459L101.869 12.9564L84.7222 14.8999L84.3651 14.6486L101.517 12.6935L101.497 12.5053L84.1313 14.4837L83.744 14.2117L84.2985 14.1524L101.945 12.1844L101.297 11.25L82 13.3456V13.6317V14.3947V39.5848L85.4955 42.1134V42.1341L103.762 40.233L103.765 14.2633L86.3845 16.0715ZM100.5 25.5907L89.9605 26.6927V20.9445L100.5 19.8439V25.5907Z" fill="black"/>
</g>
</g>
<g filter="url(#filter1_d)">
<path d="M7.29289 11.7071C7.68342 12.0976 8.31658 12.0976 8.70711 11.7071C9.09763 11.3166 9.09763 10.6834 8.70711 10.2929L7.29289 11.7071ZM5.00001 7.00001C4.44772 7.00001 4.00001 7.44772 4.00001 8.00001V17C4.00001 17.5523 4.44772 18 5.00001 18C5.55229 18 6.00001 17.5523 6.00001 17L6.00001 9.00001H14C14.5523 9.00001 15 8.55229 15 8.00001C15 7.44772 14.5523 7.00001 14 7.00001H5.00001ZM8.70711 10.2929L5.70711 7.2929L4.2929 8.70711L7.29289 11.7071L8.70711 10.2929Z" fill="black"/>
</g>
<g filter="url(#filter2_d)">
<path d="M176.707 44.2929C176.317 43.9024 175.683 43.9024 175.293 44.2929C174.902 44.6834 174.902 45.3166 175.293 45.7071L176.707 44.2929ZM178.581 48.5811C179.133 48.5811 179.581 48.1334 179.581 47.5811V38.5811C179.581 38.0288 179.133 37.5811 178.581 37.5811C178.029 37.5811 177.581 38.0288 177.581 38.5811V46.5811H169.581C169.029 46.5811 168.581 47.0288 168.581 47.5811C168.581 48.1334 169.029 48.5811 169.581 48.5811H178.581ZM175.293 45.7071L177.874 48.2882L179.288 46.874L176.707 44.2929L175.293 45.7071Z" fill="black"/>
</g>
<defs>
<filter id="filter0_d" x="62" y="0" width="48" height="49" filterUnits="userSpaceOnUse" color-interpolation-filters="sRGB">
<feFlood flood-opacity="0" result="BackgroundImageFix"/>
<feColorMatrix in="SourceAlpha" type="matrix" values="0 0 0 0 0 0 0 0 0 0 0 0 0 0 0 0 0 0 127 0" result="hardAlpha"/>
<feOffset dy="3"/>
<feGaussianBlur stdDeviation="2"/>
<feColorMatrix type="matrix" values="0 0 0 0 0 0 0 0 0 0 0 0 0 0 0 0 0 0 0.25 0"/>
<feBlend mode="normal" in2="BackgroundImageFix" result="effect1_dropShadow"/>
<feBlend mode="normal" in="SourceGraphic" in2="effect1_dropShadow" result="shape"/>
</filter>
<filter id="filter1_d" x="0" y="6" width="19" height="19" filterUnits="userSpaceOnUse" color-interpolation-filters="sRGB">
<feFlood flood-opacity="0" result="BackgroundImageFix"/>
<feColorMatrix in="SourceAlpha" type="matrix" values="0 0 0 0 0 0 0 0 0 0 0 0 0 0 0 0 0 0 127 0" result="hardAlpha"/>
<feOffset dy="3"/>
<feGaussianBlur stdDeviation="2"/>
<feColorMatrix type="matrix" values="0 0 0 0 0 0 0 0 0 0 0 0 0 0 0 0 0 0 0.25 0"/>
<feBlend mode="normal" in2="BackgroundImageFix" result="effect1_dropShadow"/>
<feBlend mode="normal" in="SourceGraphic" in2="effect1_dropShadow" result="shape"/>
</filter>
<filter id="filter2_d" x="164.581" y="36.5811" width="19" height="19" filterUnits="userSpaceOnUse" color-interpolation-filters="sRGB">
<feFlood flood-opacity="0" result="BackgroundImageFix"/>
<feColorMatrix in="SourceAlpha" type="matrix" values="0 0 0 0 0 0 0 0 0 0 0 0 0 0 0 0 0 0 127 0" result="hardAlpha"/>
<feOffset dy="3"/>
<feGaussianBlur stdDeviation="2"/>
<feColorMatrix type="matrix" values="0 0 0 0 0 0 0 0 0 0 0 0 0 0 0 0 0 0 0.25 0"/>
<feBlend mode="normal" in2="BackgroundImageFix" result="effect1_dropShadow"/>
<feBlend mode="normal" in="SourceGraphic" in2="effect1_dropShadow" result="shape"/>
</filter>
<clipPath id="clip0">
<rect width="40" height="41" fill="white" transform="translate(66 1)"/>
</clipPath>
</defs>
</svg>
