<svg width="843" height="806" viewBox="0 0 843 806" fill="none" xmlns="http://www.w3.org/2000/svg">
<g filter="url(#filter0_d)">
<path d="M501.355 172.141C540.81 152.11 587.05 182.715 584.026 226.86L561.38 557.556C558.395 601.148 509.489 625.31 473.053 601.193L200.141 420.557C163.705 396.44 166.837 341.982 205.797 322.201L501.355 172.141Z" fill="url(#paint0_radial)"/>
</g>
<g filter="url(#filter1_d)">
<path d="M633.358 312.759C647.672 305.355 664.966 314.587 666.78 330.6L677.229 422.877C679.313 441.287 659.888 454.48 643.544 445.755L550.61 396.146C534.265 387.421 534.417 363.939 550.873 355.427L633.358 312.759Z" fill="url(#paint1_radial)"/>
</g>
<defs>
<filter id="filter0_d" x="115.54" y="44.6097" width="664.137" height="653.09" filterUnits="userSpaceOnUse" color-interpolation-filters="sRGB">
<feFlood flood-opacity="0" result="BackgroundImageFix"/>
<feColorMatrix in="SourceAlpha" type="matrix" values="0 0 0 0 0 0 0 0 0 0 0 0 0 0 0 0 0 0 127 0" result="hardAlpha"/>
<feOffset dy="28"/>
<feGaussianBlur stdDeviation="18.5"/>
<feColorMatrix type="matrix" values="0 0 0 0 0 0 0 0 0 0 0 0 0 0 0 0 0 0 0.3 0"/>
<feBlend mode="normal" in2="BackgroundImageFix" result="effect1_dropShadow"/>
<feBlend mode="normal" in="SourceGraphic" in2="effect1_dropShadow" result="shape"/>
</filter>
<filter id="filter1_d" x="513.285" y="276.244" width="225.264" height="213.362" filterUnits="userSpaceOnUse" color-interpolation-filters="sRGB">
<feFlood flood-opacity="0" result="BackgroundImageFix"/>
<feColorMatrix in="SourceAlpha" type="matrix" values="0 0 0 0 0 0 0 0 0 0 0 0 0 0 0 0 0 0 127 0" result="hardAlpha"/>
<feOffset dy="16"/>
<feGaussianBlur stdDeviation="8.5"/>
<feColorMatrix type="matrix" values="0 0 0 0 0 0 0 0 0 0 0 0 0 0 0 0 0 0 0.3 0"/>
<feBlend mode="normal" in2="BackgroundImageFix" result="effect1_dropShadow"/>
<feBlend mode="normal" in="SourceGraphic" in2="effect1_dropShadow" result="shape"/>
</filter>
<radialGradient id="paint0_radial" cx="0" cy="0" r="1" gradientUnits="userSpaceOnUse" gradientTransform="translate(421.36 382.812) rotate(123.5) scale(307.148 302)">
<stop stop-color="#FBFBFA"/>
<stop offset="0.557292" stop-color="#FFD79A"/>
</radialGradient>
<radialGradient id="paint1_radial" cx="0" cy="0" r="1" gradientUnits="userSpaceOnUse" gradientTransform="translate(585.012 379.772) rotate(118.094) scale(93.3565 111.359)">
<stop stop-color="#FBFBFA"/>
<stop offset="0.703125" stop-color="#FFD79A"/>
</radialGradient>
</defs>
</svg>
