<svg width="54" height="44" viewBox="0 0 54 44" fill="none" xmlns="http://www.w3.org/2000/svg">
<g filter="url(#filter0_d_201_2)">
<path d="M12.3797 10.068L12.0314 9.82184L28.5157 7.98913L28.4943 7.80097L11.7975 9.65687L11.507 9.45324L28.1812 7.58444L28.1586 7.39499L11.2706 9.28827L10.95 9.06272L27.8832 7.14238L27.8644 6.95292L10.7174 8.89647L10.3603 8.64515L27.5123 6.69L27.4922 6.50183L10.1264 8.48018L9.73914 8.20823L10.2937 8.14895L27.9398 6.18092L27.2923 5.24652L7.99515 7.34215V7.62826V8.39125V33.5813L11.4907 36.11V36.1306L29.7568 34.2296L29.7605 8.25979L12.3797 10.068ZM26.4951 19.5872L15.9557 20.6892V14.941L26.4951 13.8404V19.5872V19.5872Z" fill="black"/>
</g>
<path d="M29.9863 34.1965V9.05978H40.709C45.4902 9.05978 47.8808 11.011 47.8808 14.9133C47.8808 17.7727 46.3222 19.8176 43.205 21.0481C46.5332 21.6692 48.1972 23.5735 48.1972 26.761C48.1972 31.718 45.5781 34.1965 40.3398 34.1965H29.9863ZM40.1465 31.5598C43.1465 31.5598 44.6465 30.0363 44.6465 26.9895C44.6465 24.0246 42.6367 22.5422 38.6172 22.5422H37.2109V20.4153C42.0156 19.7707 44.4179 18.0363 44.4179 15.2121C44.4179 12.8684 43.082 11.6965 40.4101 11.6965H33.2383V31.5598H40.1465Z" fill="black"/>
<path d="M50.7052 38.2918C50.3146 37.9012 49.6815 37.9012 49.2909 38.2918C48.9004 38.6823 48.9004 39.3155 49.2909 39.706L50.7052 38.2918ZM52.5792 42.58C53.1315 42.58 53.5792 42.1323 53.5792 41.58V32.58C53.5792 32.0277 53.1315 31.58 52.5792 31.58C52.0269 31.58 51.5792 32.0277 51.5792 32.58V40.58H43.5792C43.0269 40.58 42.5792 41.0277 42.5792 41.58C42.5792 42.1323 43.0269 42.58 43.5792 42.58H52.5792ZM49.2909 39.706L51.8721 42.2871L53.2863 40.8729L50.7052 38.2918L49.2909 39.706Z" fill="black"/>
<path d="M3.29289 4.70711C3.68342 5.09763 4.31658 5.09763 4.70711 4.70711C5.09763 4.31658 5.09763 3.68342 4.70711 3.29289L3.29289 4.70711ZM1.00001 7.28476e-06C0.447723 7.28476e-06 7.28476e-06 0.447723 7.28476e-06 1.00001L7.28476e-06 10C7.28476e-06 10.5523 0.447723 11 1.00001 11C1.55229 11 2.00001 10.5523 2.00001 10L2.00001 2.00001L10 2.00001C10.5523 2.00001 11 1.55229 11 1.00001C11 0.447723 10.5523 7.28476e-06 10 7.28476e-06L1.00001 7.28476e-06ZM4.70711 3.29289L1.70711 0.292901L0.292901 1.70711L3.29289 4.70711L4.70711 3.29289Z" fill="black"/>
<defs>
<filter id="filter0_d_201_2" x="3.99515" y="4.24652" width="29.7654" height="38.884" filterUnits="userSpaceOnUse" color-interpolation-filters="sRGB">
<feFlood flood-opacity="0" result="BackgroundImageFix"/>
<feColorMatrix in="SourceAlpha" type="matrix" values="0 0 0 0 0 0 0 0 0 0 0 0 0 0 0 0 0 0 127 0" result="hardAlpha"/>
<feOffset dy="3"/>
<feGaussianBlur stdDeviation="2"/>
<feColorMatrix type="matrix" values="0 0 0 0 0 0 0 0 0 0 0 0 0 0 0 0 0 0 0.25 0"/>
<feBlend mode="normal" in2="BackgroundImageFix" result="effect1_dropShadow_201_2"/>
<feBlend mode="normal" in="SourceGraphic" in2="effect1_dropShadow_201_2" result="shape"/>
</filter>
</defs>
</svg>
