<?xml version="1.0"?>
<svg xmlns="http://www.w3.org/2000/svg" xmlns:xlink="http://www.w3.org/1999/xlink" xmlns:svgjs="http://svgjs.com/svgjs" version="1.1" width="512" height="512" x="0" y="0" viewBox="0 0 512 512" style="enable-background:new 0 0 512 512" xml:space="preserve" class=""><g><g xmlns="http://www.w3.org/2000/svg"><path d="m376 31c-54.544 0-95.017 33.497-120 81.015-24.981-47.515-65.454-81.015-120-81.015-78.609 0-136 66.015-136 146.515 0 106.457 101.572 173.291 246.122 299.773 5.657 4.949 14.099 4.948 19.756 0 144.417-126.366 246.122-193.303 246.122-299.773 0-80.513-57.4-146.515-136-146.515zm-120 415.101c-133.122-115.635-226-179.872-226-268.586 0-66.424 45.57-116.515 106-116.515 58.252 0 94.351 53.947 105.542 93.996 4.036 14.61 24.83 14.675 28.916 0 11.043-39.518 46.723-93.996 105.542-93.996 60.43 0 106 50.091 106 116.515 0 88.765-93.03 153.083-226 268.586z" fill="#eb6868" data-original="#000000" style="" class=""/></g></g></svg>
